<svg xmlns="http://www.w3.org/2000/svg" viewBox="0 0 700 100" width="100%" style="max-width: 700px;">
  <style>
    .scale-fill { fill: #FFA500; stroke: none; }
    .outer-border { fill: none; stroke: #444; stroke-width: 1.5; }
    .inner-line { stroke: #444; stroke-width: 1; stroke-dasharray: 3,2; }
    .num-text { font: bold 11px sans-serif; fill: #333; text-anchor: middle; dominant-baseline: middle; }
    .dots-text { font: bold 14px sans-serif; fill: #333; text-anchor: middle; dominant-baseline: middle; }
    .arrow-line { stroke: #444; stroke-width: 2; fill: none; }
  </style>
  
  <defs>
    <marker id="arrowhead" markerWidth="10" markerHeight="10" refX="8" refY="5" orient="auto">
      <polygon points="0 0, 10 5, 0 10" fill="#444" />
    </marker>
  </defs>
  
  <!-- Left: Sequential indices -->
  <g id="sequential">
    <!-- Background -->
    <rect x="15" y="35" width="270" height="30" class="scale-fill"/>
    <rect x="15" y="35" width="270" height="30" class="outer-border"/>
    
    <!-- Dashed internal lines -->
    <line x1="45" y1="35" x2="45" y2="65" class="inner-line"/>
    <line x1="75" y1="35" x2="75" y2="65" class="inner-line"/>
    <line x1="105" y1="35" x2="105" y2="65" class="inner-line"/>
    <line x1="135" y1="35" x2="135" y2="65" class="inner-line"/>
    <line x1="165" y1="35" x2="165" y2="65" class="inner-line"/>
    <line x1="195" y1="35" x2="195" y2="65" class="inner-line"/>
    <line x1="225" y1="35" x2="225" y2="65" class="inner-line"/>
    <line x1="255" y1="35" x2="255" y2="65" class="inner-line"/>
    
    <!-- Numbers -->
    <text x="30" y="50" class="num-text">0</text>
    <text x="60" y="50" class="num-text">1</text>
    <text x="90" y="50" class="num-text">2</text>
    <text x="120" y="50" class="num-text">3</text>
    <text x="150" y="50" class="num-text">4</text>
    <text x="180" y="50" class="num-text">5</text>
    <text x="210" y="50" class="num-text">6</text>
    <text x="240" y="50" class="num-text">7</text>
    <text x="270" y="50" class="dots-text">...</text>
  </g>
  
  <!-- Arrow -->
  <path d="M 300 50 L 340 50" class="arrow-line" marker-end="url(#arrowhead)"/>
  
  <!-- Right: Swizzled indices -->
  <g id="swizzled">
    <!-- Background -->
    <rect x="360" y="35" width="270" height="30" class="scale-fill"/>
    <rect x="360" y="35" width="270" height="30" class="outer-border"/>
    
    <!-- Dashed internal lines -->
    <line x1="390" y1="35" x2="390" y2="65" class="inner-line"/>
    <line x1="420" y1="35" x2="420" y2="65" class="inner-line"/>
    <line x1="450" y1="35" x2="450" y2="65" class="inner-line"/>
    <line x1="480" y1="35" x2="480" y2="65" class="inner-line"/>
    <line x1="510" y1="35" x2="510" y2="65" class="inner-line"/>
    <line x1="540" y1="35" x2="540" y2="65" class="inner-line"/>
    <line x1="570" y1="35" x2="570" y2="65" class="inner-line"/>
    <line x1="600" y1="35" x2="600" y2="65" class="inner-line"/>
    
    <!-- Numbers -->
    <text x="375" y="50" class="num-text">0</text>
    <text x="405" y="50" class="num-text">32</text>
    <text x="435" y="50" class="num-text">64</text>
    <text x="465" y="50" class="num-text">96</text>
    <text x="495" y="50" class="num-text">1</text>
    <text x="525" y="50" class="num-text">33</text>
    <text x="555" y="50" class="num-text">65</text>
    <text x="585" y="50" class="num-text">97</text>
    <text x="615" y="50" class="dots-text">...</text>
  </g>
</svg>
