<svg xmlns="http://www.w3.org/2000/svg" viewBox="0 0 900 300" width="100%" style="max-width: 900px;">
  <style>
    .scale-fill { fill: #FFA500; stroke: #444; stroke-width: 2; }
    .grid-line { stroke: #444; stroke-width: 2; fill: none; }
    .dots-text { font: bold 24px sans-serif; fill: #333; text-anchor: middle; }
    .label { font: 12px sans-serif; fill: #333; text-anchor: middle; }
    .num-text { font: bold 12px sans-serif; fill: #333; text-anchor: middle; dominant-baseline: middle; }
    .arrow-line { stroke: #444; stroke-width: 2; fill: none; }
  </style>
  
  <defs>
    <marker id="arrowhead" markerWidth="10" markerHeight="10" refX="8" refY="5" orient="auto">
      <polygon points="0 0, 10 5, 0 10" fill="#444" />
    </marker>
  </defs>
  
  <!-- Left: Scaling factors grid (copied from mxfp8_tensor_scaling_layout.svg) -->
  <!-- Main rectangle with white background -->
  <rect x="40" y="40" width="120" height="240" fill="#FFFFFF" stroke="#444" stroke-width="2"/>
  
  <!-- Orange grid area (upper-left) -->
  <rect x="40" y="40" width="60" height="180" fill="#FFA500" stroke="#444" stroke-width="2"/>
  
  <!-- Grid lines for narrow blocks (3 columns x 3 rows) -->
  <line x1="60" y1="40" x2="60" y2="220" class="grid-line"/>
  <line x1="80" y1="40" x2="80" y2="220" class="grid-line"/>
  <line x1="40" y1="100" x2="100" y2="100" class="grid-line"/>
  <line x1="40" y1="160" x2="100" y2="160" class="grid-line"/>
  
  <!-- Numbers in orange cells -->
  <!-- Row 1 -->
  <text x="50" y="70" class="num-text">1</text>
  <text x="70" y="70" class="num-text">2</text>
  <text x="90" y="70" class="num-text">3</text>
  <!-- Row 2 -->
  <text x="50" y="125" class="num-text">K</text>
  <text x="50" y="137" class="num-text">+</text>
  <text x="50" y="149" class="num-text">1</text>
  <text x="70" y="125" class="num-text">K</text>
  <text x="70" y="137" class="num-text">+</text>
  <text x="70" y="149" class="num-text">2</text>
  <text x="90" y="125" class="num-text">K</text>
  <text x="90" y="137" class="num-text">+</text>
  <text x="90" y="149" class="num-text">3</text>
  <!-- Row 3 -->
  <text x="50" y="180" class="num-text">2K</text>
  <text x="50" y="192" class="num-text">+</text>
  <text x="50" y="204" class="num-text">1</text>
  <text x="70" y="180" class="num-text">2K</text>
  <text x="70" y="192" class="num-text">+</text>
  <text x="70" y="204" class="num-text">1</text>
  <text x="90" y="180" class="num-text">2K</text>
  <text x="90" y="192" class="num-text">+</text>
  <text x="90" y="204" class="num-text">3</text>
  
  <!-- Dots in white area (right side) -->
  <text x="125" y="90" class="dots-text">…</text>
  <text x="125" y="150" class="dots-text">…</text>
  <text x="125" y="210" class="dots-text">…</text>
  
  <!-- Dots in white area (bottom) -->
  <text x="60" y="260" class="dots-text">⋮</text>
  <text x="90" y="260" class="dots-text">⋮</text>
  <text x="125" y="260" class="dots-text">⋱</text>
  
  <!-- Arrow -->
  <path d="M 200 150 L 300 150" class="arrow-line" marker-end="url(#arrowhead)"/>
  
  <!-- Right: Linearized 1D array -->
  <!-- Main rectangle with white background -->
  <rect x="340" y="130" width="520" height="40" fill="#FFFFFF" stroke="#444" stroke-width="2"/>
  
  <!-- Orange cells -->
  <rect x="340" y="130" width="70" height="40" fill="#FFA500" stroke="#444" stroke-width="2"/>
  <text x="375" y="150" class="num-text">1</text>
  
  <rect x="410" y="130" width="70" height="40" fill="#FFA500" stroke="#444" stroke-width="2"/>
  <text x="445" y="150" class="num-text">2</text>
  
  <rect x="480" y="130" width="70" height="40" fill="#FFA500" stroke="#444" stroke-width="2"/>
  <text x="515" y="150" class="dots-text">…</text>
  
  <rect x="550" y="130" width="70" height="40" fill="#FFA500" stroke="#444" stroke-width="2"/>
  <text x="585" y="150" class="num-text">K + 1</text>
  
  <rect x="620" y="130" width="70" height="40" fill="#FFA500" stroke="#444" stroke-width="2"/>
  <text x="655" y="150" class="num-text">K + 2</text>
  
  <!-- White area with dots -->
  <text x="725" y="150" class="dots-text">…</text>
</svg>
